# xmcd
#
# Track frame offsets:
#	150
#	19108
#	37113
#	58981
#	78096
#	94771
#	114599
#	133436
#	151286
#
# Disc length: 2418 seconds
#
# Revision: 1
# Processed by: cddbd v1.5.2PL0 Copyright (c) Steve Scherf et al.
# Submitted via: audiograbber 1.83.01
#
DISCID=76097009
DTITLE=Ms Monique - She Motions
DYEAR=2012
DGENRE=R&B
TTITLE0=Becoming the Man I Want
TTITLE1=Finally_Free
TTITLE2=She Aint
TTITLE3=Perfect Opportunity
TTITLE4=Complex Situation
TTITLE5=Luvz On Lock
TTITLE6=One Magic Moment
TTITLE7=Tonite
TTITLE8=You Did It to You
EXTD=
EXTT0=
EXTT1=
EXTT2=
EXTT3=
EXTT4=
EXTT5=
EXTT6=
EXTT7=
EXTT8=
PLAYORDER=
